<svg width="40" height="36" viewBox="0 0 40 36" fill="none" xmlns="http://www.w3.org/2000/svg">
<path fill-rule="evenodd" clip-rule="evenodd" d="M19.7998 15.84C17.6127 15.84 15.8398 17.6129 15.8398 19.8C15.8398 21.9871 17.6127 23.76 19.7998 23.76C21.987 23.76 23.7598 21.9871 23.7598 19.8C23.7598 17.6129 21.987 15.84 19.7998 15.84Z" fill="#DDDDDD"/>
<path fill-rule="evenodd" clip-rule="evenodd" d="M39.5999 13.0082C39.5999 13.0752 39.5997 13.143 39.5997 13.2114V26.1317C39.5999 27.9047 39.5999 29.4323 39.4371 30.6557C39.2627 31.9667 38.8691 33.2232 37.8601 34.2426C36.8509 35.262 35.6067 35.6594 34.3088 35.8356C33.0978 36.0002 31.5853 36 29.8301 36H9.76984C8.01461 36 6.50224 36.0002 5.29117 35.8356C3.99326 35.6594 2.74914 35.262 1.74003 34.2426C0.730912 33.2232 0.337392 31.9667 0.162897 30.6557C6.3581e-05 29.4323 0.000162638 27.9047 0.000261637 26.1317V13.2114C0.000261637 13.143 0.000202285 13.0752 0.000123086 13.0082C-0.000748103 12.0859 -0.0015006 11.2909 0.167411 10.5869C0.691392 8.40334 2.37922 6.69846 4.54096 6.16919C5.23787 5.99857 6.02499 5.99933 6.93802 6.00021C7.0044 6.00029 7.07145 6.00035 7.13916 6.00035C7.82481 6.00035 7.96285 5.99513 8.07434 5.97825C8.52602 5.90987 8.94038 5.68585 9.24728 5.34418C9.32301 5.25984 9.4039 5.1467 9.78421 4.57047L10.2327 3.89098C10.278 3.8223 10.3229 3.75414 10.3674 3.68652C11.0163 2.70044 11.5887 1.83071 12.401 1.21142C12.8923 0.836781 13.4384 0.541605 14.0196 0.336428C14.9803 -0.00274762 16.0142 -0.00136744 17.1864 0.00021254C17.2668 0.000332538 17.3479 0.000432358 17.4295 0.000432358H22.1706C22.2521 0.000432358 22.3333 0.000332538 22.4137 0.00021254C23.5858 -0.00136744 24.6198 -0.00274762 25.5805 0.336428C26.1616 0.541605 26.7077 0.836781 27.1991 1.21142C28.0113 1.83071 28.5837 2.70046 29.2327 3.68652C29.2771 3.75414 29.322 3.82232 29.3674 3.89098L29.8158 4.57047C30.1962 5.1467 30.277 5.25984 30.3528 5.34418C30.6597 5.68585 31.0741 5.90987 31.5257 5.97825C31.6372 5.99513 31.7752 6.00035 32.4609 6.00035C32.5286 6.00035 32.5957 6.00029 32.6621 6.00021C33.575 5.99933 34.3623 5.99857 35.059 6.16919C37.2208 6.69846 38.9087 8.40334 39.4326 10.5869C39.6015 11.2909 39.6007 12.0859 39.5999 13.0082ZM11.8804 20.0002C11.8804 15.5821 15.4262 12.0003 19.8003 12.0003C24.1743 12.0003 27.7202 15.5821 27.7202 20.0002C27.7202 24.4184 24.1743 28.0001 19.8003 28.0001C15.4262 28.0001 11.8804 24.4184 11.8804 20.0002Z" fill="#DDDDDD"/>
</svg>
