<svg width="18" height="22" viewBox="0 0 18 22" fill="none" xmlns="http://www.w3.org/2000/svg">
<path d="M7.20326 6.35781C7.20326 6.17872 7.20326 6.04793 7.20326 5.91646C7.20389 4.56425 7.19058 3.21137 7.20959 1.85916C7.2229 0.884576 7.92383 0.101152 8.81424 0.00926095C9.70466 -0.0826304 10.5241 0.517682 10.7402 1.43794C10.7877 1.64117 10.7947 1.85849 10.7953 2.0691C10.8004 3.36564 10.7979 4.66218 10.7979 5.95872C10.7979 6.07811 10.7979 6.1975 10.7979 6.35781C10.9512 6.35781 11.064 6.35781 11.1769 6.35781C12.1167 6.36049 13.0572 6.3397 13.9964 6.37122C15.4762 6.42153 16.7874 7.77441 16.7836 9.33656C16.7792 11.1241 17.0796 12.872 17.2684 14.6341C17.4877 16.6758 17.7514 18.7122 17.9903 20.7519C18.0562 21.3173 17.8147 21.5997 17.2811 21.5997C11.7574 21.6004 6.23426 21.601 0.710512 21.5997C0.193374 21.5997 -0.0531541 21.32 0.00958688 20.7754C0.266888 18.5586 0.547005 16.3438 0.792265 14.1256C0.966546 12.5528 1.22702 10.9906 1.21434 9.39358C1.20103 7.79655 2.50148 6.42354 4.01297 6.37122C4.94141 6.33903 5.87175 6.36049 6.80083 6.35781C6.91617 6.35714 7.03151 6.35781 7.20326 6.35781ZM3.30444 20.3132C3.32409 20.116 3.3431 19.9396 3.35958 19.7619C3.44006 18.8839 3.50217 18.0032 3.61308 17.1292C3.63843 16.932 3.7975 16.6838 3.961 16.596C4.1112 16.5148 4.37484 16.5645 4.54342 16.653C4.78107 16.7771 4.8191 17.046 4.79248 17.3237C4.69869 18.3111 4.6144 19.2991 4.52504 20.3038C6.89526 20.3038 9.24012 20.3038 11.5989 20.3038C11.5653 20.0577 11.5356 19.8377 11.5045 19.617C11.2776 17.9938 11.0469 16.3713 10.8264 14.7467C10.77 14.3329 10.9722 14.0425 11.3182 13.9848C11.6515 13.9298 11.9221 14.1592 11.99 14.573C12.0571 14.9795 12.1116 15.3886 12.1699 15.7971C12.3848 17.2962 12.599 18.7953 12.8157 20.3085C13.4482 20.3085 14.0655 20.3085 14.6961 20.3085C14.6042 19.727 14.5161 19.1662 14.4273 18.6055C14.3608 18.1829 14.5427 17.8731 14.8995 17.7993C15.2392 17.7295 15.5231 17.965 15.5991 18.3929C15.712 19.0267 15.8165 19.6626 15.9255 20.2991C16.1968 20.2991 16.4503 20.2991 16.7107 20.2991C16.6867 20.0704 16.6676 19.8705 16.6442 19.6713C16.3362 17.0568 16.0206 14.4429 15.7284 11.8263C15.6929 11.5064 15.5991 11.4266 15.307 11.4273C11.1052 11.4366 6.90286 11.434 2.70111 11.434C2.58831 11.434 2.4755 11.434 2.33798 11.434C1.98434 14.4114 1.63452 17.3526 1.28342 20.3125C1.96153 20.3132 2.61302 20.3132 3.30444 20.3132ZM15.5985 10.1535C15.5985 9.97309 15.5985 9.82889 15.5985 9.68468C15.596 8.41094 14.8672 7.63423 13.6719 7.63288C12.5945 7.63154 11.5178 7.63289 10.4404 7.63221C9.78261 7.63154 9.60009 7.43569 9.59946 6.7294C9.59882 5.2095 9.59946 3.68961 9.59882 2.16904C9.59882 2.0463 9.59946 1.92221 9.58298 1.80148C9.54622 1.52782 9.38335 1.35745 9.13999 1.29306C8.89346 1.22732 8.65581 1.29976 8.53159 1.53452C8.44477 1.69885 8.40928 1.91282 8.40801 2.10532C8.3985 3.65875 8.40357 5.21219 8.40231 6.76629C8.40167 7.4216 8.20394 7.63221 7.58984 7.63288C6.49156 7.63423 5.39327 7.63154 4.29499 7.63356C2.98313 7.63557 2.13771 8.78589 2.45205 10.1535C6.8173 10.1535 11.1857 10.1535 15.5985 10.1535Z" fill="black"/>
</svg>
