<svg width="47" height="47" viewBox="0 0 47 47" fill="none" xmlns="http://www.w3.org/2000/svg">
<g id="close-circle-svgrepo-com (1) 1">
<path id="Vector" opacity="0.4" d="M23.5013 43.0832C34.3168 43.0832 43.0846 34.3153 43.0846 23.4998C43.0846 12.6843 34.3168 3.9165 23.5013 3.9165C12.6857 3.9165 3.91797 12.6843 3.91797 23.4998C3.91797 34.3153 12.6857 43.0832 23.5013 43.0832Z" fill="#E8E8E8"/>
<path id="Vector_2" d="M25.5759 23.5003L30.0801 18.9962C30.648 18.4282 30.648 17.4882 30.0801 16.9203C29.5122 16.3524 28.5722 16.3524 28.0043 16.9203L23.5001 21.4245L18.9959 16.9203C18.428 16.3524 17.488 16.3524 16.9201 16.9203C16.3522 17.4882 16.3522 18.4282 16.9201 18.9962L21.4243 23.5003L16.9201 28.0045C16.3522 28.5724 16.3522 29.5124 16.9201 30.0803C17.2138 30.3741 17.5859 30.5111 17.958 30.5111C18.3301 30.5111 18.7021 30.3741 18.9959 30.0803L23.5001 25.5761L28.0043 30.0803C28.298 30.3741 28.6701 30.5111 29.0422 30.5111C29.4143 30.5111 29.7864 30.3741 30.0801 30.0803C30.648 29.5124 30.648 28.5724 30.0801 28.0045L25.5759 23.5003Z" fill="#989898"/>
</g>
</svg>
