<svg width="21" height="21" viewBox="0 0 21 21" fill="none" xmlns="http://www.w3.org/2000/svg">
<g id="Group 35560">
<rect id="Rectangle 12" width="21" height="21" rx="4" fill="#2C7FFF"/>
<g id="Group">
<path id="Vector" d="M9.84713 11.8855C9.86074 11.9751 9.90547 12.0613 9.98151 12.1441C10.0569 12.2266 10.1466 12.2681 10.25 12.2681C10.4912 12.2681 10.6253 12.1404 10.6528 11.8855L11.4586 5.69398C11.4724 5.58418 11.4793 5.42909 11.4793 5.22924C11.4793 4.91923 11.3728 4.63707 11.1591 4.38194C10.9457 4.12725 10.6426 4 10.25 4C9.84326 4 9.5371 4.13071 9.33058 4.39214C9.12403 4.64724 9.02075 4.92617 9.02075 5.22926C9.02075 5.41529 9.02724 5.57018 9.04106 5.694L9.84713 11.8855Z" fill="white"/>
<path id="Vector_2" d="M11.1386 13.5171C10.9044 13.2829 10.608 13.1656 10.25 13.1656C9.8989 13.1656 9.60253 13.2865 9.36143 13.5274C9.12033 13.7685 9 14.0611 9 14.4054C9 14.736 9.12033 15.0287 9.36143 15.2836C9.60253 15.5316 9.89893 15.6554 10.25 15.6554C10.6011 15.6554 10.897 15.5351 11.1386 15.2938C11.3793 15.0531 11.5 14.7567 11.5 14.4054C11.5 14.0541 11.3793 13.7582 11.1386 13.5171Z" fill="white"/>
</g>
</g>
</svg>
