<svg width="60" height="60" viewBox="0 0 60 60" fill="none" xmlns="http://www.w3.org/2000/svg">
<rect width="60" height="60" rx="30" fill="url(#paint0_radial_3594_6548)"/>
<path d="M45.5 17H15.1667C14.8821 16.9998 14.6003 17.0558 14.3373 17.1646C14.0744 17.2734 13.8355 17.433 13.6342 17.6342C13.433 17.8355 13.2734 18.0744 13.1646 18.3373C13.0558 18.6003 12.9998 18.8821 13 19.1667V40.8333C12.9998 41.1179 13.0558 41.3997 13.1646 41.6627C13.2734 41.9256 13.433 42.1645 13.6342 42.3658C13.8355 42.567 14.0744 42.7266 14.3373 42.8354C14.6003 42.9442 14.8821 43.0002 15.1667 43H45.5C45.7846 43.0002 46.0664 42.9442 46.3293 42.8354C46.5923 42.7266 46.8312 42.567 47.0324 42.3658C47.2337 42.1645 47.3932 41.9256 47.5021 41.6627C47.6109 41.3997 47.6668 41.1179 47.6667 40.8333V19.1667C47.6668 18.8821 47.6109 18.6003 47.5021 18.3373C47.3932 18.0744 47.2337 17.8355 47.0324 17.6342C46.8312 17.433 46.5923 17.2734 46.3293 17.1646C46.0664 17.0558 45.7846 16.9998 45.5 17ZM21.6667 38.6667C21.6655 37.5177 21.2086 36.4162 20.3962 35.6038C19.5838 34.7914 18.4823 34.3345 17.3333 34.3333V25.6667C18.4823 25.6655 19.5838 25.2086 20.3962 24.3962C21.2086 23.5838 21.6655 22.4823 21.6667 21.3333H39C39.0011 22.4823 39.4581 23.5838 40.2705 24.3962C41.0829 25.2086 42.1844 25.6655 43.3333 25.6667V34.3333C42.1844 34.3345 41.0829 34.7914 40.2705 35.6038C39.4581 36.4162 39.0011 37.5177 39 38.6667H21.6667Z" fill="white"/>
<path d="M30.3333 25.6667C29.4763 25.6667 28.6385 25.9209 27.9259 26.397C27.2133 26.8732 26.6578 27.55 26.3299 28.3418C26.0019 29.1336 25.9161 30.0049 26.0833 30.8455C26.2505 31.6861 26.6632 32.4582 27.2692 33.0642C27.8752 33.6702 28.6474 34.0829 29.4879 34.2502C30.3285 34.4174 31.1998 34.3315 31.9916 34.0036C32.7834 33.6756 33.4602 33.1202 33.9364 32.4076C34.4125 31.6949 34.6667 30.8571 34.6667 30.0001C34.6655 28.8512 34.2086 27.7496 33.3962 26.9372C32.5838 26.1248 31.4823 25.6679 30.3333 25.6667Z" fill="white"/>
<defs>
<radialGradient id="paint0_radial_3594_6548" cx="0" cy="0" r="1" gradientUnits="userSpaceOnUse" gradientTransform="translate(30 30) rotate(90) scale(30)">
<stop stop-color="#2D9CDB"/>
<stop offset="1" stop-color="#2F80ED"/>
</radialGradient>
</defs>
</svg>
