<svg width="30" height="30" viewBox="0 0 30 30" fill="none" xmlns="http://www.w3.org/2000/svg">
<path fill-rule="evenodd" clip-rule="evenodd" d="M18.75 1.5625H13.6795C11.3823 1.56248 9.56274 1.56247 8.13872 1.75392C6.6732 1.95095 5.48701 2.3661 4.55155 3.30155C3.6161 4.23701 3.20095 5.42319 3.00392 6.88872C2.81247 8.31274 2.81248 10.1323 2.8125 12.4295V20C2.8125 22.3403 4.52756 24.28 6.76939 24.6309C6.94186 25.5859 7.27191 26.401 7.93544 27.0646C8.68783 27.817 9.63518 28.1406 10.7603 28.2919C11.844 28.4375 13.2219 28.4375 14.9314 28.4375H18.8186C20.5281 28.4375 21.906 28.4375 22.9897 28.2919C24.1148 28.1406 25.0622 27.817 25.8146 27.0646C26.567 26.3122 26.8906 25.3648 27.0418 24.2397C27.1875 23.156 27.1875 21.7781 27.1875 20.0686V13.6814C27.1875 11.9719 27.1875 10.594 27.0418 9.51031C26.8906 8.38518 26.567 7.43783 25.8146 6.68544C25.151 6.02191 24.3359 5.69186 23.3809 5.51939C23.03 3.27756 21.0903 1.5625 18.75 1.5625ZM21.4117 5.33896C21.0331 4.23279 19.9844 3.4375 18.75 3.4375H13.75C11.3665 3.4375 9.67314 3.43949 8.38856 3.6122C7.13095 3.78128 6.40639 4.09837 5.87738 4.62738C5.34837 5.15639 5.03128 5.88095 4.8622 7.13856C4.68949 8.42314 4.6875 10.1165 4.6875 12.5V20C4.6875 21.2344 5.48279 22.2831 6.58896 22.6617C6.56247 21.8992 6.56249 21.0371 6.5625 20.0686V13.6814C6.56247 11.9719 6.56245 10.594 6.70815 9.51031C6.85943 8.38518 7.18304 7.43783 7.93544 6.68544C8.68783 5.93304 9.63518 5.60943 10.7603 5.45815C11.844 5.31245 13.2219 5.31247 14.9314 5.3125H18.8186C19.7871 5.31249 20.6492 5.31247 21.4117 5.33896ZM9.26126 8.01126C9.60722 7.66531 10.0929 7.43975 11.0102 7.31644C11.9543 7.18949 13.2057 7.1875 15 7.1875H18.75C20.5443 7.1875 21.7957 7.18949 22.7399 7.31644C23.6571 7.43975 24.1428 7.66531 24.4887 8.01126C24.8347 8.35722 25.0603 8.84293 25.1836 9.76015C25.3105 10.7043 25.3125 11.9557 25.3125 13.75V20C25.3125 21.7943 25.3105 23.0457 25.1836 23.9899C25.0603 24.9071 24.8347 25.3928 24.4887 25.7387C24.1428 26.0847 23.6571 26.3103 22.7399 26.4336C21.7957 26.5605 20.5443 26.5625 18.75 26.5625H15C13.2057 26.5625 11.9543 26.5605 11.0102 26.4336C10.0929 26.3103 9.60722 26.0847 9.26126 25.7387C8.91531 25.3928 8.68975 24.9071 8.56644 23.9899C8.43949 23.0457 8.4375 21.7943 8.4375 20V13.75C8.4375 11.9557 8.43949 10.7043 8.56644 9.76015C8.68975 8.84293 8.91531 8.35722 9.26126 8.01126Z" fill="white"/>
</svg>
