<svg width="24" height="24" viewBox="0 0 24 24" fill="none" xmlns="http://www.w3.org/2000/svg">
<path d="M14.5814 6.11779C14.5362 5.85337 14.3071 5.65991 14.0386 5.65991H1.66078C1.30406 5.65991 1.01522 5.94908 1.01522 6.30515C1.01522 6.66186 1.30406 6.95071 1.66078 6.95071H4.67311C5.02983 6.95071 5.31867 7.23993 5.31867 7.59632C5.31867 7.95271 5.02983 8.24188 4.67311 8.24188H0.645563C0.289172 8.24188 0 8.53105 0 8.88744C0 9.24383 0.289172 9.53263 0.645563 9.53263H6.13528C6.45028 9.53263 6.70584 9.78857 6.70584 10.1036C6.70584 10.4186 6.45028 10.6741 6.13528 10.6741H3.21867C2.86195 10.6741 2.57311 10.9633 2.57311 11.3197C2.57311 11.6761 2.86195 11.9653 3.21867 11.9653H5.36822C5.6835 11.9653 5.93911 12.2209 5.93911 12.5359C5.93911 12.8508 5.6835 13.1064 5.36822 13.1064H2.4007C2.04398 13.1064 1.75514 13.3956 1.75514 13.752C1.75514 14.1084 2.04398 14.3976 2.4007 14.3976H6.47948L6.73673 15.8526H8.21423C8.12733 16.0638 8.07778 16.2943 8.07778 16.5369C8.07778 17.5328 8.88487 18.3399 9.88078 18.3399C10.8763 18.3399 11.6834 17.5328 11.6834 16.5369C11.6834 16.2943 11.6339 16.0638 11.547 15.8526H16.2363L14.5814 6.11779ZM10.6567 16.5369C10.6567 16.9656 10.3095 17.3128 9.88073 17.3128C9.45173 17.3128 9.10448 16.9656 9.10448 16.5369C9.10448 16.2386 9.2745 15.9826 9.5213 15.8526H10.2398C10.4866 15.9826 10.6567 16.2385 10.6567 16.5369Z" fill="#2D9CDB"/>
<path d="M23.9811 14.722L23.2405 11.0685L20.5364 6.90796H15.6128L17.1378 15.8526H18.9388C18.8522 16.0637 18.8026 16.2942 18.8026 16.5369C18.8026 17.5327 19.6098 18.3399 20.6053 18.3399C21.6012 18.3399 22.4083 17.5327 22.4083 16.5369C22.4083 16.2942 22.3587 16.0637 22.2719 15.8526H23.0566C23.3397 15.8526 23.6078 15.7257 23.787 15.5064C23.9659 15.2875 24.0374 14.9993 23.9811 14.722ZM18.3997 8.57249H19.6332L21.2346 11.0356H18.8199L18.3997 8.57249ZM21.3815 16.5369C21.3815 16.9656 21.0343 17.3128 20.6053 17.3128C20.1769 17.3128 19.8294 16.9656 19.8294 16.5369C19.8294 16.2386 19.9998 15.9826 20.2462 15.8526H20.9647C21.2115 15.9826 21.3815 16.2385 21.3815 16.5369Z" fill="#2D9CDB"/>
</svg>
