<svg width="24" height="24" viewBox="0 0 24 24" fill="none" xmlns="http://www.w3.org/2000/svg">
<path d="M14.5814 6.11791C14.5362 5.85349 14.3071 5.66003 14.0386 5.66003H1.66078C1.30406 5.66003 1.01522 5.94921 1.01522 6.30527C1.01522 6.66199 1.30406 6.95083 1.66078 6.95083H4.67311C5.02983 6.95083 5.31867 7.24005 5.31867 7.59644C5.31867 7.95283 5.02983 8.242 4.67311 8.242H0.645563C0.289172 8.242 0 8.53117 0 8.88757C0 9.24396 0.289172 9.53275 0.645563 9.53275H6.13528C6.45028 9.53275 6.70584 9.78869 6.70584 10.1037C6.70584 10.4187 6.45028 10.6743 6.13528 10.6743H3.21867C2.86195 10.6743 2.57311 10.9635 2.57311 11.3199C2.57311 11.6762 2.86195 11.9654 3.21867 11.9654H5.36822C5.6835 11.9654 5.93911 12.221 5.93911 12.536C5.93911 12.8509 5.6835 13.1065 5.36822 13.1065H2.4007C2.04398 13.1065 1.75514 13.3957 1.75514 13.7521C1.75514 14.1085 2.04398 14.3977 2.4007 14.3977H6.47948L6.73673 15.8528H8.21423C8.12733 16.0639 8.07778 16.2944 8.07778 16.537C8.07778 17.5329 8.88487 18.34 9.88078 18.34C10.8763 18.34 11.6834 17.5329 11.6834 16.537C11.6834 16.2944 11.6339 16.0639 11.547 15.8528H16.2363L14.5814 6.11791ZM10.6567 16.537C10.6567 16.9657 10.3095 17.3129 9.88073 17.3129C9.45173 17.3129 9.10448 16.9657 9.10448 16.537C9.10448 16.2387 9.2745 15.9828 9.5213 15.8527H10.2398C10.4866 15.9828 10.6567 16.2386 10.6567 16.537Z" fill="#2D9CDB"/>
<path d="M23.9811 14.7221L23.2405 11.0687L20.5364 6.90808H15.6128L17.1378 15.8527H18.9388C18.8522 16.0638 18.8026 16.2943 18.8026 16.537C18.8026 17.5329 19.6098 18.34 20.6053 18.34C21.6012 18.34 22.4083 17.5329 22.4083 16.537C22.4083 16.2943 22.3587 16.0638 22.2719 15.8527H23.0566C23.3397 15.8527 23.6078 15.7258 23.787 15.5065C23.9659 15.2876 24.0374 14.9995 23.9811 14.7221ZM18.3997 8.57261H19.6332L21.2346 11.0358H18.8199L18.3997 8.57261ZM21.3815 16.537C21.3815 16.9657 21.0343 17.3129 20.6053 17.3129C20.1769 17.3129 19.8294 16.9657 19.8294 16.537C19.8294 16.2387 19.9998 15.9828 20.2462 15.8527H20.9647C21.2115 15.9828 21.3815 16.2386 21.3815 16.537Z" fill="#2D9CDB"/>
</svg>
