<svg width="50" height="50" viewBox="0 0 50 50" fill="none" xmlns="http://www.w3.org/2000/svg">
<g filter="url(#filter0_b_1694_1190)">
<circle cx="25" cy="25" r="25" fill="#D9D9D9" fill-opacity="0.13"/>
</g>
<path d="M15.3762 30.0297C15.3762 29.3735 14.8443 28.8416 14.1881 28.8416C13.5319 28.8416 13 29.3735 13 30.0297H15.3762ZM37 30.0297C37 29.3735 36.468 28.8416 35.8119 28.8416C35.1557 28.8416 34.6238 29.3735 34.6238 30.0297H37ZM24.0631 30.8831C23.6596 31.4005 23.7518 32.1471 24.2692 32.5507C24.7866 32.9542 25.5332 32.862 25.9369 32.3446L24.0631 30.8831ZM32.1151 24.4238C32.5186 23.9065 32.4264 23.1598 31.909 22.7562C31.3916 22.3527 30.645 22.4449 30.2413 22.9623L32.1151 24.4238ZM24.0631 32.3446C24.4668 32.862 25.2134 32.9542 25.7308 32.5507C26.2482 32.1471 26.3404 31.4005 25.9369 30.8831L24.0631 32.3446ZM19.7586 22.9623C19.355 22.4449 18.6084 22.3527 18.0911 22.7562C17.5737 23.1598 17.4814 23.9065 17.8849 24.4238L19.7586 22.9623ZM23.8119 31.6139C23.8119 32.27 24.3438 32.802 25 32.802C25.6562 32.802 26.1881 32.27 26.1881 31.6139H23.8119ZM26.1881 14.1881C26.1881 13.5319 25.6562 13 25 13C24.3438 13 23.8119 13.5319 23.8119 14.1881H26.1881ZM13 30.0297V31.6139H15.3762V30.0297H13ZM13 31.6139C13 34.8663 15.5783 37.5545 18.8218 37.5545V35.1782C16.947 35.1782 15.3762 33.611 15.3762 31.6139H13ZM18.8218 37.5545H31.1782V35.1782H18.8218V37.5545ZM31.1782 37.5545C34.4216 37.5545 37 34.8663 37 31.6139H34.6238C34.6238 33.611 33.0529 35.1782 31.1782 35.1782V37.5545ZM37 31.6139V30.0297H34.6238V31.6139H37ZM25.9369 32.3446L32.1151 24.4238L30.2413 22.9623L24.0631 30.8831L25.9369 32.3446ZM25.9369 30.8831L19.7586 22.9623L17.8849 24.4238L24.0631 32.3446L25.9369 30.8831ZM26.1881 31.6139V14.1881H23.8119V31.6139H26.1881Z" fill="white"/>
<defs>
<filter id="filter0_b_1694_1190" x="-24" y="-24" width="98" height="98" filterUnits="userSpaceOnUse" color-interpolation-filters="sRGB">
<feFlood flood-opacity="0" result="BackgroundImageFix"/>
<feGaussianBlur in="BackgroundImageFix" stdDeviation="12"/>
<feComposite in2="SourceAlpha" operator="in" result="effect1_backgroundBlur_1694_1190"/>
<feBlend mode="normal" in="SourceGraphic" in2="effect1_backgroundBlur_1694_1190" result="shape"/>
</filter>
</defs>
</svg>
