<svg width="25" height="24" viewBox="0 0 25 24" fill="none" xmlns="http://www.w3.org/2000/svg">
<path fill-rule="evenodd" clip-rule="evenodd" d="M12.3336 21.2308C12.8932 21.2308 13.2093 20.7424 14.1106 19.7862C15.2372 18.591 16.3235 17.4772 17.1122 16.6405C19.441 14.1703 20.3566 13.2329 21.0064 12.5016C22.7333 10.558 22.9573 7.85755 21.7862 5.80752C20.3096 3.22306 18.1077 2.76929 16.9238 2.76929C15.7398 2.76929 14.893 3.22306 13.3976 4.39116L12.3608 5.36166L11.3523 4.39116C9.73007 3.00456 8.55551 2.76929 7.80129 2.76929C7.1727 2.76929 4.54699 2.76968 2.85495 5.80752C1.62035 8.02409 2.26551 10.7545 3.83842 12.5016C4.12006 12.8144 5.28078 14.0306 7.29503 16.2204C8.10601 17.1021 9.25351 18.3145 10.0983 19.2353C10.5769 19.757 11.7739 21.2308 12.3336 21.2308Z" stroke="#4F4F4F" stroke-width="1.5"/>
</svg>
