<svg width="40" height="40" viewBox="0 0 40 40" fill="none" xmlns="http://www.w3.org/2000/svg">
<g clip-path="url(#clip0_1247_4740)">
<g clip-path="url(#clip1_1247_4740)">
<path d="M15.2 21.1088H17.2595V29.5875C17.2595 29.7549 17.3951 29.8905 17.5625 29.8905H21.0545C21.2219 29.8905 21.3575 29.7549 21.3575 29.5875V21.1488H23.7251C23.879 21.1488 24.0085 21.0333 24.0261 20.8804L24.3857 17.759C24.3956 17.6731 24.3684 17.5871 24.3109 17.5226C24.2534 17.4582 24.1711 17.4213 24.0847 17.4213H21.3576V15.4646C21.3576 14.8748 21.6752 14.5757 22.3017 14.5757C22.391 14.5757 24.0847 14.5757 24.0847 14.5757C24.2521 14.5757 24.3878 14.44 24.3878 14.2726V11.4074C24.3878 11.24 24.2521 11.1044 24.0847 11.1044H21.6274C21.6101 11.1036 21.5716 11.1022 21.5148 11.1022C21.0885 11.1022 19.6064 11.1859 18.4357 12.2629C17.1386 13.4564 17.3189 14.8853 17.362 15.1331V17.4212H15.1999C15.0325 17.4212 14.8969 17.5568 14.8969 17.7242V20.8058C14.8969 20.9731 15.0326 21.1088 15.2 21.1088Z" fill="white"/>
</g>
</g>
<circle cx="19.6423" cy="19.6423" r="19.1423" stroke="white"/>
<defs>
<clipPath id="clip0_1247_4740">
<rect width="18.7883" height="18.7883" fill="white" transform="translate(10.2482 10.2482)"/>
</clipPath>
<clipPath id="clip1_1247_4740">
<rect width="18.7883" height="18.7883" fill="white" transform="translate(10.2482 11.1022)"/>
</clipPath>
</defs>
</svg>
