<svg width="35" height="35" viewBox="0 0 35 35" fill="none" xmlns="http://www.w3.org/2000/svg">
<circle cx="17.5" cy="17.5" r="17.5" fill="url(#paint0_linear_787_2813)"/>
<g clip-path="url(#clip0_787_2813)">
<path d="M14.3037 11.6571H9.76514V26.2409H14.3037V11.6571Z" fill="white"/>
<path d="M12.1062 6.47607C13.3592 6.47607 14.3754 7.48583 14.3754 8.73136C14.3754 9.97723 13.3592 10.987 12.1062 10.987C10.8528 10.987 9.83691 9.97723 9.83691 8.73136C9.83691 7.48583 10.8528 6.47607 12.1062 6.47607Z" fill="white"/>
<path d="M9.72852 21.0599L14.3757 14.0125C14.3757 14.0125 16.694 10.7697 19.2537 14.0125C19.2537 14.0125 23.0932 10.5523 26.4386 14.0125C26.4386 14.0125 27.6268 15.3368 27.6086 16.7671L27.6089 26.241H24.0253L24.0526 18.8675C24.0526 18.8675 24.2856 17.2233 22.3111 17.0469C22.3111 17.0469 20.8029 17.1285 20.8029 18.9626C20.8029 20.7967 20.7756 26.241 20.7756 26.241H17.1968V18.7387C17.1968 18.7387 17.2448 17.0539 15.8943 17.0539C15.8943 17.0539 14.6672 16.8976 14.6672 18.929C14.6672 20.9603 14.6742 26.2413 14.6742 26.2413H9.76496L9.72852 21.0599Z" fill="#44C7F2"/>
</g>
<defs>
<linearGradient id="paint0_linear_787_2813" x1="0" y1="17.5" x2="35" y2="17.5" gradientUnits="userSpaceOnUse">
<stop stop-color="#2D3395"/>
<stop offset="1" stop-color="#007CFF"/>
</linearGradient>
<clipPath id="clip0_787_2813">
<rect width="17.8804" height="19.7826" fill="white" transform="translate(9.72852 6.46741)"/>
</clipPath>
</defs>
</svg>
