<svg width="41" height="40" viewBox="0 0 41 40" fill="none" xmlns="http://www.w3.org/2000/svg">
<circle cx="20.4526" cy="19.6423" r="19.1423" stroke="white"/>
<path fill-rule="evenodd" clip-rule="evenodd" d="M30 28H26.3016V21.7007C26.3016 19.9736 25.6453 19.0085 24.2783 19.0085C22.7912 19.0085 22.0143 20.0129 22.0143 21.7007V28H18.45V16H22.0143V17.6164C22.0143 17.6164 23.0859 15.6334 25.6324 15.6334C28.1777 15.6334 30 17.1877 30 20.4023V28ZM14.1979 14.4287C12.9838 14.4287 12 13.4372 12 12.2143C12 10.9915 12.9838 10 14.1979 10C15.4119 10 16.3951 10.9915 16.3951 12.2143C16.3951 13.4372 15.4119 14.4287 14.1979 14.4287ZM12.3574 28H16.074V16H12.3574V28Z" fill="white"/>
</svg>
