<svg width="50" height="50" viewBox="0 0 50 50" fill="none" xmlns="http://www.w3.org/2000/svg">
<g filter="url(#filter0_b_1694_1189)">
<circle cx="25" cy="25" r="25" fill="#D9D9D9" fill-opacity="0.13"/>
</g>
<path fill-rule="evenodd" clip-rule="evenodd" d="M23.3673 27.6813C23.4851 27.5635 23.5785 27.4237 23.6422 27.2699C23.706 27.116 23.7388 26.9511 23.7388 26.7845C23.7388 26.618 23.706 26.4531 23.6422 26.2992C23.5785 26.1454 23.4851 26.0056 23.3673 25.8878C23.0364 25.557 22.774 25.1642 22.5949 24.7319C22.4159 24.2997 22.3237 23.8364 22.3237 23.3685C22.3237 22.9006 22.4159 22.4373 22.5949 22.0051C22.774 21.5728 23.0364 21.18 23.3673 20.8492L27.6378 16.5799C27.9686 16.249 28.3614 15.9866 28.7937 15.8076C29.2259 15.6285 29.6892 15.5363 30.1571 15.5363C30.625 15.5363 31.0883 15.6285 31.5206 15.8076C31.9528 15.9866 32.3456 16.249 32.6764 16.5799C33.0073 16.9107 33.2697 17.3035 33.4488 17.7358C33.6278 18.168 33.72 18.6313 33.72 19.0992C33.72 19.5671 33.6278 20.0304 33.4488 20.4626C33.2697 20.8949 33.0073 21.2877 32.6764 21.6185L31.3564 22.9373C31.2386 23.0551 31.1452 23.1949 31.0815 23.3488C31.0177 23.5026 30.9849 23.6675 30.9849 23.8341C30.9849 24.0006 31.0177 24.1655 31.0815 24.3194C31.1452 24.4732 31.2386 24.6131 31.3564 24.7308C31.5942 24.9686 31.9168 25.1023 32.2531 25.1023C32.4197 25.1023 32.5846 25.0695 32.7384 25.0057C32.8923 24.942 33.0321 24.8486 33.1499 24.7308L34.4699 23.412C35.6137 22.2682 36.2563 20.7168 36.2563 19.0992C36.2563 17.4816 35.6137 15.9302 34.4699 14.7864C33.3261 13.6426 31.7747 13 30.1571 13C28.5395 13 26.9882 13.6426 25.8443 14.7864L21.5738 19.0557C21.0074 19.6221 20.5582 20.2944 20.2516 21.0344C19.9451 21.7744 19.7873 22.5675 19.7873 23.3685C19.7873 24.1695 19.9451 24.9626 20.2516 25.7026C20.5582 26.4426 21.0074 27.1149 21.5738 27.6813C22.069 28.1764 22.8721 28.1764 23.3673 27.6813ZM25.8431 21.6185C25.7254 21.7363 25.6319 21.8761 25.5682 22.0299C25.5045 22.1838 25.4717 22.3487 25.4717 22.5152C25.4717 22.6818 25.5045 22.8467 25.5682 23.0006C25.6319 23.1544 25.7254 23.2942 25.8431 23.412C26.174 23.7428 26.4364 24.1356 26.6155 24.5678C26.7945 25.0001 26.8867 25.4634 26.8867 25.9313C26.8867 26.3992 26.7945 26.8625 26.6155 27.2947C26.4364 27.727 26.174 28.1198 25.8431 28.4506L21.6161 32.6776C21.287 33.0162 20.8939 33.286 20.4596 33.4714C20.0253 33.6567 19.5585 33.7539 19.0864 33.7572C18.6142 33.7605 18.1461 33.67 17.7092 33.4908C17.2724 33.3116 16.8755 33.0474 16.5416 32.7135C16.2078 32.3795 15.9437 31.9826 15.7646 31.5457C15.5855 31.1088 15.4951 30.6406 15.4985 30.1685C15.502 29.6963 15.5992 29.2296 15.7847 28.7953C15.9701 28.3611 16.24 27.968 16.5787 27.639L17.8166 26.4011C18.0544 26.1633 18.188 25.8407 18.188 25.5044C18.188 25.168 18.0544 24.8455 17.8166 24.6076C17.5788 24.3698 17.2562 24.2362 16.9199 24.2362C16.5835 24.2362 16.261 24.3698 16.0231 24.6076L14.7864 25.8455C13.6426 26.9894 13 28.5407 13 30.1583C13 31.7759 13.6426 33.3273 14.7864 34.4711C15.9302 35.6149 17.4816 36.2575 19.0992 36.2575C20.7168 36.2575 22.2682 35.6149 23.412 34.4711L27.639 30.2441C28.2054 29.6777 28.6547 29.0054 28.9612 28.2654C29.2677 27.5254 29.4255 26.7323 29.4255 25.9313C29.4255 25.1303 29.2677 24.3372 28.9612 23.5972C28.6547 22.8572 28.2054 22.1849 27.639 21.6185C27.5213 21.5007 27.3815 21.4073 27.2276 21.3436C27.0737 21.2798 26.9088 21.247 26.7423 21.247C26.5757 21.247 26.4108 21.2798 26.257 21.3436C26.1031 21.4073 25.9633 21.5007 25.8455 21.6185H25.8431Z" fill="white"/>
<defs>
<filter id="filter0_b_1694_1189" x="-24" y="-24" width="98" height="98" filterUnits="userSpaceOnUse" color-interpolation-filters="sRGB">
<feFlood flood-opacity="0" result="BackgroundImageFix"/>
<feGaussianBlur in="BackgroundImageFix" stdDeviation="12"/>
<feComposite in2="SourceAlpha" operator="in" result="effect1_backgroundBlur_1694_1189"/>
<feBlend mode="normal" in="SourceGraphic" in2="effect1_backgroundBlur_1694_1189" result="shape"/>
</filter>
</defs>
</svg>
