<svg width="29" height="29" viewBox="0 0 29 29" fill="none" xmlns="http://www.w3.org/2000/svg">
<path d="M14.2796 21.21H14.2915M13.0896 6.92999H15.4696M10.9476 24.78H17.6116C18.9446 24.78 19.6111 24.78 20.1202 24.5206C20.568 24.2924 20.9321 23.9283 21.1602 23.4805C21.4196 22.9714 21.4196 22.3049 21.4196 20.972V7.16799C21.4196 5.83507 21.4196 5.1686 21.1602 4.65949C20.9321 4.21166 20.568 3.84756 20.1202 3.61939C19.6111 3.35999 18.9446 3.35999 17.6116 3.35999H10.9476C9.61473 3.35999 8.94826 3.35999 8.43915 3.61939C7.99132 3.84756 7.62723 4.21166 7.39906 4.65949C7.13965 5.1686 7.13965 5.83505 7.13965 7.16799V20.972C7.13965 22.3049 7.13965 22.9714 7.39906 23.4805C7.62723 23.9283 7.99132 24.2924 8.43915 24.5206C8.94826 24.78 9.61472 24.78 10.9476 24.78Z" stroke="white" stroke-width="1.68" stroke-linecap="round" stroke-linejoin="round"/>
</svg>
