<svg width="28" height="28" viewBox="0 0 28 28" fill="none" xmlns="http://www.w3.org/2000/svg">
<circle cx="14" cy="14" r="14" fill="url(#paint0_linear_3495_3227)"/>
<g clip-path="url(#clip0_3495_3227)">
<path d="M11.4433 9.3252H7.8125V20.9922H11.4433V9.3252Z" fill="white"/>
<path d="M9.6865 5.18066C10.689 5.18066 11.5019 5.98847 11.5019 6.98489C11.5019 7.98159 10.689 8.78939 9.6865 8.78939C8.68377 8.78939 7.87109 7.98159 7.87109 6.98489C7.87109 5.98847 8.68377 5.18066 9.6865 5.18066Z" fill="white"/>
<path d="M7.78418 16.8477L11.5019 11.2098C11.5019 11.2098 13.3566 8.61553 15.4044 11.2098C15.4044 11.2098 18.4759 8.44163 21.1522 11.2098C21.1522 11.2098 22.1028 12.2693 22.0882 13.4135L22.0885 20.9926H19.2216L19.2435 15.0938C19.2435 15.0938 19.4299 13.7785 17.8502 13.6374C17.8502 13.6374 16.6437 13.7026 16.6437 15.1699C16.6437 16.6372 16.6218 20.9926 16.6218 20.9926H13.7588V14.9907C13.7588 14.9907 13.7972 13.6429 12.7168 13.6429C12.7168 13.6429 11.7351 13.5179 11.7351 15.143C11.7351 16.768 11.7407 20.9929 11.7407 20.9929H7.81333L7.78418 16.8477Z" fill="#44C7F2"/>
</g>
<defs>
<linearGradient id="paint0_linear_3495_3227" x1="0" y1="14" x2="28" y2="14" gradientUnits="userSpaceOnUse">
<stop stop-color="#2D3395"/>
<stop offset="1" stop-color="#007CFF"/>
</linearGradient>
<clipPath id="clip0_3495_3227">
<rect width="14.3043" height="15.8261" fill="white" transform="translate(7.78418 5.17383)"/>
</clipPath>
</defs>
</svg>
