<svg width="28" height="28" viewBox="0 0 28 28" fill="none" xmlns="http://www.w3.org/2000/svg">
<g clip-path="url(#clip0_3495_3208)">
<path d="M11.4423 6.78027H7.81152V18.4473H11.4423V6.78027Z" fill="white"/>
<path d="M9.68553 2.63574C10.688 2.63574 11.5009 3.44355 11.5009 4.43997C11.5009 5.43667 10.688 6.24447 9.68553 6.24447C8.68279 6.24447 7.87012 5.43667 7.87012 4.43997C7.87012 3.44355 8.68279 2.63574 9.68553 2.63574Z" fill="white"/>
<path d="M7.7832 14.3028L11.5009 8.66486C11.5009 8.66486 13.3556 6.07061 15.4034 8.66486C15.4034 8.66486 18.4749 5.89671 21.1512 8.66486C21.1512 8.66486 22.1018 9.72434 22.0873 10.8685L22.0875 18.4477H19.2206L19.2425 12.5489C19.2425 12.5489 19.4289 11.2336 17.8492 11.0924C17.8492 11.0924 16.6427 11.1577 16.6427 12.625C16.6427 14.0923 16.6208 18.4477 16.6208 18.4477H13.7578V12.4458C13.7578 12.4458 13.7963 11.098 12.7159 11.098C12.7159 11.098 11.7342 10.973 11.7342 12.598C11.7342 14.2231 11.7398 18.448 11.7398 18.448H7.81236L7.7832 14.3028Z" fill="#44C7F2"/>
</g>
<circle cx="14" cy="14" r="14" fill="url(#paint0_linear_3495_3208)"/>
<path fill-rule="evenodd" clip-rule="evenodd" d="M15.6038 6.24428L19.6138 8.55948C20.5614 9.10654 21.1451 10.1176 21.1451 11.2117V15.8421C21.1451 16.9362 20.5614 17.9472 19.6138 18.4943L15.6038 20.8095C14.6562 21.3565 13.4888 21.3565 12.5413 20.8095L8.53125 18.4943C7.58371 17.9472 7 16.9362 7 15.8421V11.2117C7 10.1176 7.58371 9.10654 8.53125 8.55948L12.5413 6.24428C13.4888 5.69722 14.6562 5.69722 15.6038 6.24428ZM17.6558 11.2593C17.5235 11.0104 17.2144 10.9159 16.9655 11.0482L14.0667 12.5891L11.1678 11.0482C10.9189 10.9159 10.6099 11.0104 10.4775 11.2593C10.3452 11.5082 10.4397 11.8172 10.6886 11.9496L13.5562 13.4741L13.5563 16.9291C13.5563 17.211 13.7848 17.4395 14.0667 17.4395C14.3486 17.4395 14.5771 17.211 14.5771 16.9291L14.5771 13.4741L17.4448 11.9496C17.6937 11.8172 17.7882 11.5082 17.6558 11.2593Z" fill="white"/>
<defs>
<linearGradient id="paint0_linear_3495_3208" x1="-0.636364" y1="13.3636" x2="28" y2="13.3636" gradientUnits="userSpaceOnUse">
<stop stop-color="#39BB94"/>
<stop offset="1" stop-color="#2DDBC6"/>
</linearGradient>
<clipPath id="clip0_3495_3208">
<rect width="14.3043" height="15.8261" fill="white" transform="translate(7.7832 2.62891)"/>
</clipPath>
</defs>
</svg>
