<svg width="39" height="39" viewBox="0 0 39 39" fill="none" xmlns="http://www.w3.org/2000/svg">
<g id="link-2-svgrepo-com 1">
<path id="Vector" d="M22.6929 16.3093C22.236 15.8524 21.4952 15.8524 21.0382 16.3094C20.5815 16.7663 20.5815 17.5072 21.0384 17.9639L22.6929 16.3093ZM13.2409 20.3273C13.6978 19.8704 13.6978 19.1297 13.2409 18.6728C12.784 18.2159 12.0432 18.2159 11.5863 18.6728L13.2409 20.3273ZM16.3116 22.6907C16.7685 23.1477 17.5094 23.1477 17.9661 22.6907C18.4231 22.2338 18.4231 21.493 17.9661 21.036L16.3116 22.6907ZM25.7636 18.6728C25.3067 19.1297 25.3067 19.8704 25.7636 20.3273C26.2206 20.7843 26.9613 20.7843 27.4182 20.3273L25.7636 18.6728ZM21.0384 17.9639C21.759 18.6845 22.1638 19.6618 22.1638 20.681H24.5038C24.5038 19.0413 23.8525 17.4688 22.6929 16.3093L21.0384 17.9639ZM22.1638 20.681C22.1638 21.7 21.759 22.6773 21.0384 23.3979L22.6929 25.0526C23.8525 23.8932 24.5038 22.3207 24.5038 20.681H22.1638ZM21.0384 23.3979L16.3116 28.1248L17.9661 29.7794L22.6929 25.0526L21.0384 23.3979ZM16.3116 28.1248C14.811 29.6254 12.3781 29.6254 10.8775 28.1248L9.2229 29.7794C11.6373 32.1938 15.5518 32.1938 17.9661 29.7794L16.3116 28.1248ZM10.8775 28.1248C9.37698 26.6243 9.37698 24.1913 10.8775 22.6907L9.2229 21.0362C6.80851 23.4505 6.80851 27.365 9.2229 29.7794L10.8775 28.1248ZM10.8775 22.6907L13.2409 20.3273L11.5863 18.6728L9.2229 21.0362L10.8775 22.6907ZM17.9661 21.036C17.2456 20.3155 16.8407 19.3381 16.8407 18.3191H14.5007C14.5007 19.9589 15.1521 21.5313 16.3116 22.6907L17.9661 21.036ZM16.8407 18.3191C16.8407 17.3 17.2456 16.3227 17.9661 15.6022L16.3116 13.9475C15.1521 15.1069 14.5007 16.6794 14.5007 18.3191H16.8407ZM17.9661 15.6022L22.6929 10.8753L21.0384 9.2207L16.3116 13.9475L17.9661 15.6022ZM22.6929 10.8753C24.1935 9.37478 26.6265 9.37478 28.127 10.8753L29.7816 9.2207C27.3672 6.80632 23.4527 6.80632 21.0384 9.2207L22.6929 10.8753ZM28.127 10.8753C29.6276 12.3759 29.6276 14.8088 28.127 16.3093L29.7816 17.9639C32.196 15.5496 32.196 11.6351 29.7816 9.2207L28.127 10.8753ZM28.127 16.3093L25.7636 18.6728L27.4182 20.3273L29.7816 17.9639L28.127 16.3093Z" fill="#4B4B4B"/>
</g>
</svg>
