<svg width="28" height="28" viewBox="0 0 28 28" fill="none" xmlns="http://www.w3.org/2000/svg">
<circle cx="14" cy="14" r="14" fill="url(#paint0_linear_3495_3222)"/>
<path d="M5.95368 15.0026C6.30785 15.2531 6.78296 15.374 7.24943 15.374C7.72453 15.374 8.191 15.2531 8.54517 15.0026C9.08075 14.6052 9.40901 13.9919 9.40901 13.2749C9.40901 13.9919 9.72863 14.6052 10.2728 15.0026C10.627 15.2531 11.1021 15.374 11.5686 15.374C12.0437 15.374 12.5102 15.2531 12.8643 15.0026C13.3999 14.6052 13.7282 13.9919 13.7282 13.2749C13.7282 13.9919 14.0478 14.6052 14.592 15.0026C14.9462 15.2531 15.4213 15.374 15.8964 15.374C16.3629 15.374 16.8293 15.2531 17.1835 15.0026C17.7191 14.6052 18.0473 13.9919 18.0473 13.2749C18.0473 13.9919 18.367 14.6052 18.9112 15.0026C19.2653 15.2531 19.7404 15.374 20.2069 15.374C20.682 15.374 21.1485 15.2531 21.5027 15.0026C22.0469 14.6052 22.3665 13.9919 22.3665 13.2749V12.4111L19.775 6.36426H8.54517L5.08984 12.4111V13.2749C5.08984 13.9919 5.40946 14.6052 5.95368 15.0026ZM7.68134 22.7684H12.0005V18.4493H15.4558V22.7684H19.775V16.7216C19.4554 16.6784 19.153 16.5316 18.9112 16.3502C18.367 15.9614 18.0473 15.7196 18.0473 15.0026C18.0473 15.7196 17.7191 15.9614 17.1835 16.3502C16.8293 16.6093 16.3629 16.7216 15.8964 16.7302C15.4213 16.7302 14.9462 16.6093 14.592 16.3502C14.0478 15.9614 13.7282 15.7196 13.7282 15.0026C13.7282 15.7196 13.3999 15.9614 12.8643 16.3502C12.5102 16.6093 12.0437 16.7216 11.5686 16.7302C11.1021 16.7302 10.627 16.6093 10.2728 16.3502C9.72863 15.9614 9.40901 15.7196 9.40901 14.9939C9.40901 15.7196 9.08075 15.9614 8.54517 16.3502C8.29466 16.5316 8.00096 16.6784 7.68134 16.7302V22.7684Z" fill="white"/>
<defs>
<linearGradient id="paint0_linear_3495_3222" x1="-0.636364" y1="13.3636" x2="28" y2="13.3636" gradientUnits="userSpaceOnUse">
<stop stop-color="#FF6802"/>
<stop offset="1" stop-color="#FF9248"/>
</linearGradient>
</defs>
</svg>
