<svg width="41" height="40" viewBox="0 0 41 40" fill="none" xmlns="http://www.w3.org/2000/svg">
<g clip-path="url(#clip0_1247_4736)">
<path d="M29.5158 13.7263C29.2206 13.8572 28.9172 13.9677 28.6071 14.0575C28.9742 13.6423 29.2541 13.1538 29.4249 12.6192C29.4632 12.4994 29.4235 12.3683 29.325 12.2899C29.2267 12.2115 29.09 12.2021 28.9817 12.2663C28.3232 12.6568 27.6128 12.9375 26.8678 13.1016C26.1175 12.3684 25.0983 11.9511 24.0447 11.9511C21.8207 11.9511 20.0113 13.7604 20.0113 15.9843C20.0113 16.1595 20.0224 16.3337 20.0444 16.5054C17.2846 16.2631 14.7189 14.9067 12.9571 12.7455C12.8943 12.6684 12.7976 12.6269 12.6985 12.6349C12.5995 12.6426 12.5104 12.6985 12.4603 12.7844C12.103 13.3976 11.9141 14.0988 11.9141 14.8124C11.9141 15.7842 12.261 16.7063 12.874 17.4268C12.6876 17.3623 12.5068 17.2816 12.3341 17.1858C12.2415 17.1342 12.1284 17.135 12.0363 17.1878C11.9442 17.2406 11.8865 17.3377 11.884 17.4438C11.8836 17.4617 11.8836 17.4795 11.8836 17.4976C11.8836 18.9483 12.6643 20.2543 13.858 20.9661C13.7554 20.9559 13.653 20.941 13.5511 20.9216C13.4461 20.9015 13.3382 20.9383 13.2674 21.0184C13.1965 21.0984 13.173 21.2099 13.2057 21.3117C13.6476 22.6912 14.7851 23.7058 16.1603 24.0151C15.0197 24.7295 13.7154 25.1037 12.3461 25.1037C12.0604 25.1037 11.7731 25.0869 11.4919 25.0536C11.3522 25.037 11.2186 25.1195 11.171 25.2524C11.1234 25.3853 11.1739 25.5335 11.2927 25.6097C13.0517 26.7375 15.0856 27.3336 17.1745 27.3336C21.2808 27.3336 23.8497 25.3972 25.2815 23.7728C27.067 21.7472 28.091 19.0661 28.091 16.4171C28.091 16.3064 28.0893 16.1947 28.0859 16.0832C28.7904 15.5525 29.3968 14.9102 29.8904 14.1719C29.9653 14.0598 29.9572 13.9116 29.8704 13.8084C29.7837 13.7051 29.6392 13.6717 29.5158 13.7263Z" fill="white"/>
</g>
<circle cx="20.5474" cy="19.6423" r="19.1423" stroke="white"/>
<defs>
<clipPath id="clip0_1247_4736">
<rect width="18.7883" height="18.7883" fill="white" transform="translate(11.1533 10.2482)"/>
</clipPath>
</defs>
</svg>
