<svg width="16" height="17" viewBox="0 0 16 17" fill="none" xmlns="http://www.w3.org/2000/svg">
<g id="star-svgrepo-com 1">
<path id="Vector" d="M6.42455 4.3112C7.22394 2.87717 7.62362 2.16016 8.22121 2.16016C8.8188 2.16016 9.21848 2.87717 10.0178 4.3112L10.2247 4.6822C10.4519 5.0897 10.5654 5.29346 10.7425 5.4279C10.9196 5.56234 11.1401 5.61224 11.5813 5.71205L11.9829 5.80291C13.5352 6.15414 14.3114 6.32976 14.496 6.92357C14.6807 7.51736 14.1516 8.13616 13.0933 9.37363L12.8195 9.69379C12.5188 10.0454 12.3684 10.2213 12.3007 10.4388C12.2331 10.6563 12.2559 10.8909 12.3013 11.3602L12.3427 11.7873C12.5027 13.4384 12.5827 14.2639 12.0993 14.6309C11.6158 14.9979 10.8891 14.6633 9.43565 13.9941L9.05963 13.821C8.64664 13.6308 8.44014 13.5357 8.22121 13.5357C8.00228 13.5357 7.79578 13.6308 7.38279 13.821L7.00677 13.9941C5.55333 14.6633 4.82661 14.9979 4.34316 14.6309C3.85972 14.2639 3.93972 13.4384 4.09971 11.7873L4.1411 11.3602C4.18657 10.8909 4.20931 10.6563 4.14166 10.4388C4.07402 10.2213 3.92365 10.0454 3.62293 9.69379L3.34914 9.37363C2.29087 8.13616 1.76173 7.51736 1.9464 6.92357C2.13106 6.32976 2.90722 6.15414 4.45953 5.80291L4.86114 5.71205C5.30225 5.61224 5.52281 5.56234 5.69991 5.4279C5.877 5.29346 5.99059 5.08971 6.21775 4.6822L6.42455 4.3112Z" fill="#FCC600"/>
</g>
</svg>
