<svg width="35" height="35" viewBox="0 0 35 35" fill="none" xmlns="http://www.w3.org/2000/svg">
<circle cx="17.5" cy="17.5" r="17.5" fill="url(#paint0_linear_787_2938)"/>
<path d="M7.44356 18.7525C7.88627 19.0656 8.48016 19.2168 9.06325 19.2168C9.65713 19.2168 10.2402 19.0656 10.6829 18.7525C11.3524 18.2558 11.7627 17.4891 11.7627 16.5929C11.7627 17.4891 12.1622 18.2558 12.8425 18.7525C13.2852 19.0656 13.8791 19.2168 14.4622 19.2168C15.0561 19.2168 15.6392 19.0656 16.0819 18.7525C16.7514 18.2558 17.1617 17.4891 17.1617 16.5929C17.1617 17.4891 17.5612 18.2558 18.2415 18.7525C18.6842 19.0656 19.2781 19.2168 19.872 19.2168C20.455 19.2168 21.0381 19.0656 21.4808 18.7525C22.1503 18.2558 22.5606 17.4891 22.5606 16.5929C22.5606 17.4891 22.9602 18.2558 23.6404 18.7525C24.0831 19.0656 24.677 19.2168 25.2601 19.2168C25.854 19.2168 26.4371 19.0656 26.8798 18.7525C27.5601 18.2558 27.9596 17.4891 27.9596 16.5929V15.5131L24.7202 7.95459H10.6829L6.36377 15.5131V16.5929C6.36377 17.4891 6.76329 18.2558 7.44356 18.7525ZM9.60314 28.4598H15.0021V23.0609H19.3213V28.4598H24.7202V20.9013C24.3207 20.8473 23.9428 20.6637 23.6404 20.437C22.9602 19.9511 22.5606 19.6487 22.5606 18.7525C22.5606 19.6487 22.1503 19.9511 21.4808 20.437C21.0381 20.7609 20.455 20.9013 19.872 20.9121C19.2781 20.9121 18.6842 20.7609 18.2415 20.437C17.5612 19.9511 17.1617 19.6487 17.1617 18.7525C17.1617 19.6487 16.7514 19.9511 16.0819 20.437C15.6392 20.7609 15.0561 20.9013 14.4622 20.9121C13.8791 20.9121 13.2852 20.7609 12.8425 20.437C12.1622 19.9511 11.7627 19.6487 11.7627 18.7417C11.7627 19.6487 11.3524 19.9511 10.6829 20.437C10.3698 20.6637 10.0027 20.8473 9.60314 20.9121V28.4598Z" fill="white"/>
<defs>
<linearGradient id="paint0_linear_787_2938" x1="-0.795455" y1="16.7045" x2="35" y2="16.7045" gradientUnits="userSpaceOnUse">
<stop stop-color="#FF6802"/>
<stop offset="1" stop-color="#FF9248"/>
</linearGradient>
</defs>
</svg>
