<svg width="26" height="26" viewBox="0 0 26 26" fill="none" xmlns="http://www.w3.org/2000/svg">
<path d="M13 0C5.824 0 0 5.824 0 13C0 20.176 5.824 26 13 26C20.176 26 26 20.176 26 13C26 5.824 20.176 0 13 0ZM8.749 7.358C9.802 7.358 10.673 8.216 10.673 9.282C10.673 10.335 9.815 11.206 8.749 11.206C7.696 11.206 6.825 10.348 6.825 9.282C6.825 8.216 7.683 7.358 8.749 7.358ZM8.905 17.94C8.71 18.135 8.463 18.226 8.216 18.226C7.969 18.226 7.722 18.135 7.527 17.94C7.15 17.563 7.15 16.939 7.527 16.562L16.042 8.047C16.419 7.67 17.043 7.67 17.42 8.047C17.797 8.424 17.797 9.048 17.42 9.425L8.905 17.94ZM17.251 18.642C16.198 18.642 15.327 17.784 15.327 16.718C15.327 15.665 16.185 14.794 17.251 14.794C18.304 14.794 19.175 15.652 19.175 16.718C19.175 17.784 18.317 18.642 17.251 18.642Z" fill="url(#paint0_radial_3569_6523)"/>
<defs>
<radialGradient id="paint0_radial_3569_6523" cx="0" cy="0" r="1" gradientUnits="userSpaceOnUse" gradientTransform="translate(13 13) rotate(90) scale(13)">
<stop stop-color="#39D6C3"/>
<stop offset="1" stop-color="#22D0B1"/>
</radialGradient>
</defs>
</svg>
